<?xml version="1.0" encoding="UTF-8" standalone="no"?>
<!DOCTYPE svg PUBLIC "-//W3C//DTD SVG 1.1//EN"
 "http://www.w3.org/Graphics/SVG/1.1/DTD/svg11.dtd">
<!-- Generated by graphviz version 2.42.4 (0)
 -->
<!-- Title: emulation_states Pages: 1 -->
<svg width="271pt" height="218pt"
 viewBox="0.00 0.00 271.47 218.00" xmlns="http://www.w3.org/2000/svg" xmlns:xlink="http://www.w3.org/1999/xlink">
<g id="graph0" class="graph" transform="scale(1 1) rotate(0) translate(4 214)">
<title>emulation_states</title>
<polygon fill="white" stroke="transparent" points="-4,4 -4,-214 267.47,-214 267.47,4 -4,4"/>
<!-- breakpoint -->
<g id="node1" class="node">
<title>breakpoint</title>
<polygon fill="lightgrey" stroke="black" points="161.47,-210 67.47,-210 67.47,-174 161.47,-174 161.47,-210"/>
<text text-anchor="middle" x="114.47" y="-188.3" font-family="Times,serif" font-size="14.00">breakpoint</text>
</g>
<!-- breakpoint&#45;&gt;breakpoint -->
<g id="edge3" class="edge">
<title>breakpoint&#45;&gt;breakpoint</title>
<path fill="none" stroke="black" d="M161.5,-199.66C171.9,-198.94 179.47,-196.39 179.47,-192 179.47,-189.19 176.36,-187.13 171.39,-185.82"/>
<polygon fill="black" stroke="black" points="171.91,-182.36 161.5,-184.34 170.87,-189.28 171.91,-182.36"/>
<text text-anchor="middle" x="197.47" y="-188.3" font-family="Times,serif" font-size="14.00">step </text>
</g>
<!-- running -->
<g id="node2" class="node">
<title>running</title>
<polygon fill="none" stroke="black" points="91.97,-123 18.97,-123 18.97,-87 91.97,-87 91.97,-123"/>
<text text-anchor="middle" x="55.47" y="-101.3" font-family="Times,serif" font-size="14.00">running</text>
</g>
<!-- breakpoint&#45;&gt;running -->
<g id="edge1" class="edge">
<title>breakpoint&#45;&gt;running</title>
<path fill="none" stroke="black" d="M67.35,-188.88C44.17,-185.16 18.12,-176.41 3.47,-156.5 -3.73,-146.73 1.87,-137.15 11.65,-129.01"/>
<polygon fill="black" stroke="black" points="13.77,-131.8 19.8,-123.09 9.66,-126.14 13.77,-131.8"/>
<text text-anchor="middle" x="18.47" y="-145.3" font-family="Times,serif" font-size="14.00">run </text>
</g>
<!-- stopped -->
<g id="node3" class="node">
<title>stopped</title>
<polygon fill="none" stroke="black" points="210.47,-36 136.47,-36 136.47,0 210.47,0 210.47,-36"/>
<text text-anchor="middle" x="173.47" y="-14.3" font-family="Times,serif" font-size="14.00">stopped</text>
</g>
<!-- breakpoint&#45;&gt;stopped -->
<g id="edge2" class="edge">
<title>breakpoint&#45;&gt;stopped</title>
<path fill="none" stroke="black" d="M144.05,-173.88C150.08,-169.03 155.72,-163.2 159.47,-156.5 178.55,-122.32 178.99,-75.85 176.81,-46.65"/>
<polygon fill="black" stroke="black" points="180.26,-46.01 175.87,-36.36 173.29,-46.64 180.26,-46.01"/>
<text text-anchor="middle" x="195.47" y="-101.3" font-family="Times,serif" font-size="14.00">stop </text>
</g>
<!-- running&#45;&gt;breakpoint -->
<g id="edge5" class="edge">
<title>running&#45;&gt;breakpoint</title>
<path fill="none" stroke="black" d="M56.13,-123.1C57.24,-133.48 59.96,-146.6 66.47,-156.5 69.01,-160.37 72.14,-163.94 75.58,-167.21"/>
<polygon fill="black" stroke="black" points="73.58,-170.1 83.49,-173.86 78.09,-164.75 73.58,-170.1"/>
<text text-anchor="middle" x="112.97" y="-145.3" font-family="Times,serif" font-size="14.00">pause, reset </text>
</g>
<!-- running&#45;&gt;stopped -->
<g id="edge4" class="edge">
<title>running&#45;&gt;stopped</title>
<path fill="none" stroke="black" d="M59.43,-86.86C62.68,-76.28 68.27,-63.12 77.47,-54.5 90.9,-41.9 109.19,-33.68 126.21,-28.37"/>
<polygon fill="black" stroke="black" points="127.38,-31.67 136.03,-25.56 125.46,-24.94 127.38,-31.67"/>
<text text-anchor="middle" x="118.47" y="-58.3" font-family="Times,serif" font-size="14.00">stop, error </text>
</g>
<!-- stopped&#45;&gt;breakpoint -->
<g id="edge6" class="edge">
<title>stopped&#45;&gt;breakpoint</title>
<path fill="none" stroke="black" d="M189.8,-36.1C207.54,-56.85 231.56,-92.8 217.47,-123 207.96,-143.36 188.95,-158.46 169.82,-169.18"/>
<polygon fill="black" stroke="black" points="167.98,-166.19 160.76,-173.95 171.24,-172.39 167.98,-166.19"/>
<text text-anchor="middle" x="242.47" y="-101.3" font-family="Times,serif" font-size="14.00">reset </text>
</g>
</g>
</svg>
